<svg width="600" height="600" viewBox="0 0 600 600" fill="none" xmlns="http://www.w3.org/2000/svg">
<circle cx="300" cy="300" r="300" fill="url(#paint0_linear_7_17)"/>
<path d="M352.655 255.604C351.246 250.384 349.175 245.786 346.441 241.808C343.706 237.748 340.35 234.309 336.373 231.492C332.396 228.675 327.839 226.562 322.701 225.153C317.564 223.662 311.929 222.916 305.798 222.916C293.452 222.916 282.763 225.899 273.731 231.865C264.782 237.831 257.863 246.531 252.975 257.966C248.086 269.318 245.642 283.114 245.642 299.354C245.642 315.678 248.003 329.598 252.726 341.116C257.449 352.633 264.285 361.416 273.234 367.465C282.183 373.514 293.037 376.538 305.798 376.538C317.067 376.538 326.596 374.715 334.385 371.07C342.256 367.341 348.222 362.079 352.282 355.285C356.342 348.49 358.372 340.494 358.372 331.297L369.807 332.664H307.911V287.795H417.659V321.478C417.659 344.264 412.811 363.778 403.117 380.018C393.505 396.259 380.247 408.729 363.344 417.43C346.523 426.13 327.176 430.48 305.301 430.48C281.023 430.48 259.686 425.219 241.291 414.695C222.897 404.172 208.562 389.174 198.287 369.702C188.013 350.147 182.875 326.947 182.875 300.1C182.875 279.219 185.983 260.7 192.197 244.543C198.411 228.302 207.07 214.547 218.174 203.278C229.36 192.009 242.286 183.475 256.952 177.675C271.701 171.875 287.569 168.974 304.555 168.974C319.304 168.974 333.017 171.087 345.695 175.313C358.455 179.539 369.724 185.505 379.502 193.211C389.362 200.917 397.358 210.073 403.49 220.679C409.621 231.285 413.433 242.927 414.924 255.604H352.655Z" fill="white"/>
<defs>
<linearGradient id="paint0_linear_7_17" x1="0" y1="300" x2="600" y2="300" gradientUnits="userSpaceOnUse">
<stop stop-color="#DAA520"/>
<stop offset="1" stop-color="#745811"/>
</linearGradient>
</defs>
</svg>
