<svg xmlns="http://www.w3.org/2000/svg" fill="none" viewBox="0 0 200 200" id="Eth--Streamline-Cryptocurrency" height="200" width="200">
  <desc>
    Eth Streamline Icon: https://streamlinehq.com
  </desc>
  <path fill="#627eea" d="M100 200c55.228750000000005 0 100 -44.77125 100 -100 0 -55.228500000000004 -44.77125 -100 -100 -100C44.771499999999996 0 0 44.771499999999996 0 100c0 55.228750000000005 44.771499999999996 100 100 100Z" stroke-width="6.25"></path>
  <path fill="#ffffff" fill-opacity=".602" d="M103.11250000000001 25v55.43749999999999l46.85625 20.9375L103.11250000000001 25Z" stroke-width="6.25"></path>
  <path fill="#ffffff" d="M103.11250000000001 25 56.25 101.375l46.862500000000004 -20.9375V25Z" stroke-width="6.25"></path>
  <path fill="#ffffff" fill-opacity=".602" d="M103.11250000000001 137.3v37.66875L150 110.1l-46.887499999999996 27.200000000000003Z" stroke-width="6.25"></path>
  <path fill="#ffffff" d="M103.11250000000001 174.96875v-37.675L56.25 110.1l46.862500000000004 64.86874999999999Z" stroke-width="6.25"></path>
  <path fill="#ffffff" fill-opacity=".2" d="m103.11250000000001 128.580625 46.85625 -27.206249999999997 -46.85625 -20.925v48.131249999999994Z" stroke-width="6.25"></path>
  <path fill="#ffffff" fill-opacity=".602" d="m56.25 101.374375 46.862500000000004 27.206249999999997v-48.131249999999994L56.25 101.374375Z" stroke-width="6.25"></path>
</svg>