<svg width="600" height="600" viewBox="0 0 600 600" fill="none" xmlns="http://www.w3.org/2000/svg">
<circle cx="300" cy="300" r="300" fill="#660027"/>
<path d="M151.219 209.818L200.012 369.619H201.823L250.615 209.818H309.635L236.02 428H165.814L92.1992 209.818H151.219ZM333.126 428V209.818H424.106C440.441 209.818 454.113 212.126 465.122 216.743C476.201 221.359 484.511 227.822 490.051 236.132C495.662 244.442 498.467 254.065 498.467 265.003C498.467 273.312 496.727 280.734 493.247 287.268C489.767 293.732 484.973 299.094 478.865 303.355C472.757 307.616 465.69 310.599 457.664 312.304V314.435C466.471 314.861 474.603 317.24 482.061 321.572C489.589 325.905 495.626 331.942 500.172 339.683C504.717 347.354 506.99 356.445 506.99 366.956C506.99 378.675 504.007 389.151 498.041 398.384C492.075 407.545 483.446 414.79 472.153 420.116C460.86 425.372 447.153 428 431.031 428H333.126ZM385.86 385.493H418.46C429.895 385.493 438.311 383.327 443.708 378.994C449.177 374.662 451.912 368.625 451.912 360.884C451.912 355.273 450.598 350.443 447.97 346.395C445.342 342.276 441.613 339.115 436.784 336.913C431.954 334.641 426.166 333.504 419.419 333.504H385.86V385.493ZM385.86 299.52H415.051C420.804 299.52 425.917 298.561 430.392 296.643C434.866 294.726 438.346 291.956 440.832 288.334C443.389 284.712 444.667 280.344 444.667 275.23C444.667 267.915 442.075 262.162 436.89 257.972C431.706 253.781 424.71 251.686 415.903 251.686H385.86V299.52Z" fill="white"/>
</svg>
