<svg width="600" height="600" viewBox="0 0 600 600" fill="none" xmlns="http://www.w3.org/2000/svg">
<circle cx="300" cy="300" r="300" fill="#660027"/>
<path d="M91.7991 230.364L128.394 350.214H129.752L166.346 230.364H210.611L155.4 394H102.745L47.5342 230.364H91.7991ZM367.496 230.364V394H333.938L268.819 299.558H267.78V394H228.229V230.364H262.267L326.667 324.646H328.025V230.364H367.496ZM454.927 335.193H486.887L500.471 352.532L518.288 372.986L545.694 406.784H509.899L490.723 383.853L479.377 367.553L454.927 335.193ZM546.813 312.182C546.813 330.186 543.351 345.447 536.426 357.965C529.501 370.483 520.126 379.991 508.301 386.489C496.529 392.988 483.319 396.237 468.67 396.237C453.968 396.237 440.732 392.961 428.96 386.409C417.188 379.858 407.839 370.349 400.914 357.885C394.043 345.367 390.607 330.133 390.607 312.182C390.607 294.178 394.043 278.917 400.914 266.399C407.839 253.881 417.188 244.373 428.96 237.874C440.732 231.376 453.968 228.126 468.67 228.126C483.319 228.126 496.529 231.376 508.301 237.874C520.126 244.373 529.501 253.881 536.426 266.399C543.351 278.917 546.813 294.178 546.813 312.182ZM506.383 312.182C506.383 301.528 504.865 292.526 501.829 285.175C498.846 277.825 494.531 272.258 488.885 268.476C483.292 264.694 476.554 262.803 468.67 262.803C460.84 262.803 454.102 264.694 448.455 268.476C442.809 272.258 438.468 277.825 435.431 285.175C432.449 292.526 430.957 301.528 430.957 312.182C430.957 322.835 432.449 331.837 435.431 339.188C438.468 346.539 442.809 352.105 448.455 355.887C454.102 359.669 460.84 361.56 468.67 361.56C476.554 361.56 483.292 359.669 488.885 355.887C494.531 352.105 498.846 346.539 501.829 339.188C504.865 331.837 506.383 322.835 506.383 312.182Z" fill="white"/>
</svg>
