<svg width="600" height="600" viewBox="0 0 600 600" fill="none" xmlns="http://www.w3.org/2000/svg">
<circle cx="300" cy="300" r="300" fill="#660027"/>
<path d="M138.414 209.818L187.207 369.619H189.018L237.811 209.818H296.831L223.216 428H153.01L79.3945 209.818H138.414ZM513.361 318.909C513.361 342.915 508.745 363.263 499.512 379.953C490.279 396.643 477.779 409.321 462.012 417.986C446.316 426.651 428.702 430.983 409.171 430.983C389.569 430.983 371.919 426.615 356.223 417.879C340.527 409.143 328.063 396.466 318.83 379.847C309.668 363.156 305.087 342.844 305.087 318.909C305.087 294.903 309.668 274.555 318.83 257.865C328.063 241.175 340.527 228.497 356.223 219.832C371.919 211.168 389.569 206.835 409.171 206.835C428.702 206.835 446.316 211.168 462.012 219.832C477.779 228.497 490.279 241.175 499.512 257.865C508.745 274.555 513.361 294.903 513.361 318.909ZM459.455 318.909C459.455 304.705 457.431 292.702 453.382 282.901C449.405 273.099 443.652 265.678 436.124 260.635C428.667 255.592 419.682 253.071 409.171 253.071C398.73 253.071 389.746 255.592 382.218 260.635C374.689 265.678 368.901 273.099 364.853 282.901C360.875 292.702 358.887 304.705 358.887 318.909C358.887 333.114 360.875 345.116 364.853 354.918C368.901 364.719 374.689 372.141 382.218 377.183C389.746 382.226 398.73 384.747 409.171 384.747C419.682 384.747 428.667 382.226 436.124 377.183C443.652 372.141 449.405 364.719 453.382 354.918C457.431 345.116 459.455 333.114 459.455 318.909Z" fill="white"/>
</svg>
