<svg width="600" height="600" viewBox="0 0 600 600" fill="none" xmlns="http://www.w3.org/2000/svg">
<circle cx="300" cy="300" r="300" fill="#660027"/>
<path d="M90.5413 230.364L127.136 350.214H128.494L165.089 230.364H209.353L154.142 394H101.488L46.2764 230.364H90.5413ZM371.751 312.182C371.751 330.186 368.289 345.447 361.364 357.965C354.44 370.483 345.065 379.991 333.239 386.489C321.467 392.988 308.257 396.237 293.609 396.237C278.907 396.237 265.67 392.961 253.898 386.409C242.126 379.858 232.778 370.349 225.853 357.885C218.981 345.367 215.546 330.133 215.546 312.182C215.546 294.178 218.981 278.917 225.853 266.399C232.778 253.881 242.126 244.373 253.898 237.874C265.67 231.376 278.907 228.126 293.609 228.126C308.257 228.126 321.467 231.376 333.239 237.874C345.065 244.373 354.44 253.881 361.364 266.399C368.289 278.917 371.751 294.178 371.751 312.182ZM331.322 312.182C331.322 301.528 329.804 292.526 326.767 285.175C323.784 277.825 319.47 272.258 313.823 268.476C308.23 264.694 301.492 262.803 293.609 262.803C285.778 262.803 279.04 264.694 273.394 268.476C267.747 272.258 263.406 277.825 260.37 285.175C257.387 292.526 255.896 301.528 255.896 312.182C255.896 322.835 257.387 331.837 260.37 339.188C263.406 346.539 267.747 352.105 273.394 355.887C279.04 359.669 285.778 361.56 293.609 361.56C301.492 361.56 308.23 359.669 313.823 355.887C319.47 352.105 323.784 346.539 326.767 339.188C329.804 331.837 331.322 322.835 331.322 312.182ZM549.29 312.182C549.29 330.186 545.828 345.447 538.903 357.965C531.979 370.483 522.604 379.991 510.778 386.489C499.006 392.988 485.796 396.237 471.148 396.237C456.446 396.237 443.209 392.961 431.437 386.409C419.665 379.858 410.317 370.349 403.392 357.885C396.521 345.367 393.085 330.133 393.085 312.182C393.085 294.178 396.521 278.917 403.392 266.399C410.317 253.881 419.665 244.373 431.437 237.874C443.209 231.376 456.446 228.126 471.148 228.126C485.796 228.126 499.006 231.376 510.778 237.874C522.604 244.373 531.979 253.881 538.903 266.399C545.828 278.917 549.29 294.178 549.29 312.182ZM508.861 312.182C508.861 301.528 507.343 292.526 504.306 285.175C501.323 277.825 497.009 272.258 491.362 268.476C485.769 264.694 479.031 262.803 471.148 262.803C463.317 262.803 456.579 264.694 450.933 268.476C445.286 272.258 440.945 277.825 437.909 285.175C434.926 292.526 433.435 301.528 433.435 312.182C433.435 322.835 434.926 331.837 437.909 339.188C440.945 346.539 445.286 352.105 450.933 355.887C456.579 359.669 463.317 361.56 471.148 361.56C479.031 361.56 485.769 359.669 491.362 355.887C497.009 352.105 501.323 346.539 504.306 339.188C507.343 331.837 508.861 322.835 508.861 312.182Z" fill="white"/>
</svg>
