<svg width="600" height="600" viewBox="0 0 600 600" fill="none" xmlns="http://www.w3.org/2000/svg">
<circle cx="300" cy="300" r="300" fill="#660027"/>
<path d="M79.035 250.091L108.311 345.972H109.397L138.673 250.091H174.085L129.916 381H87.7921L43.623 250.091H79.035ZM220.203 250.091L244.11 291.447H245.132L269.294 250.091H304.706L265.203 315.545L305.985 381H269.678L245.132 339.196H244.11L219.564 381H183.513L224.102 315.545L184.536 250.091H220.203ZM400.267 250.091H431.844V334.53C431.844 344.288 429.521 352.79 424.877 360.034C420.232 367.236 413.754 372.818 405.445 376.781C397.135 380.702 387.483 382.662 376.489 382.662C365.367 382.662 355.651 380.702 347.341 376.781C339.031 372.818 332.575 367.236 327.973 360.034C323.371 352.79 321.07 344.288 321.07 334.53V250.091H352.71V331.781C352.71 336.298 353.691 340.325 355.651 343.862C357.654 347.399 360.445 350.169 364.024 352.172C367.604 354.175 371.759 355.176 376.489 355.176C381.219 355.176 385.352 354.175 388.889 352.172C392.469 350.169 395.26 347.399 397.263 343.862C399.266 340.325 400.267 336.298 400.267 331.781V250.091ZM522.435 289.338C522.009 284.651 520.113 281.007 516.746 278.408C513.422 275.766 508.671 274.445 502.492 274.445C498.401 274.445 494.992 274.977 492.265 276.043C489.537 277.108 487.492 278.578 486.128 280.453C484.765 282.286 484.062 284.395 484.019 286.781C483.934 288.741 484.317 290.467 485.17 291.959C486.064 293.45 487.343 294.771 489.005 295.922C490.709 297.03 492.755 298.01 495.141 298.862C497.528 299.714 500.212 300.46 503.195 301.099L514.445 303.656C520.922 305.062 526.633 306.938 531.576 309.281C536.562 311.625 540.738 314.416 544.104 317.655C547.513 320.893 550.091 324.622 551.839 328.841C553.586 333.06 554.481 337.79 554.523 343.031C554.481 351.298 552.393 358.393 548.259 364.317C544.126 370.24 538.181 374.778 530.425 377.932C522.712 381.085 513.401 382.662 502.492 382.662C491.54 382.662 481.995 381.021 473.856 377.74C465.716 374.459 459.388 369.473 454.871 362.783C450.354 356.092 448.032 347.634 447.904 337.406H478.202C478.458 341.625 479.587 345.141 481.59 347.953C483.593 350.766 486.341 352.896 489.836 354.345C493.373 355.794 497.464 356.518 502.108 356.518C506.37 356.518 509.992 355.943 512.975 354.793C516.001 353.642 518.323 352.044 519.942 349.999C521.562 347.953 522.393 345.609 522.435 342.967C522.393 340.496 521.626 338.386 520.134 336.639C518.643 334.849 516.341 333.315 513.231 332.037C510.162 330.716 506.242 329.501 501.469 328.393L487.79 325.197C476.455 322.598 467.528 318.401 461.008 312.605C454.488 306.767 451.249 298.884 451.292 288.955C451.249 280.858 453.422 273.763 457.812 267.669C462.201 261.575 468.273 256.824 476.029 253.415C483.785 250.006 492.627 248.301 502.556 248.301C512.698 248.301 521.498 250.027 528.955 253.479C536.455 256.888 542.272 261.682 546.405 267.861C550.539 274.04 552.648 281.199 552.733 289.338H522.435Z" fill="white"/>
</svg>
